<?xml version="1.0" encoding="UTF-8" standalone="no"?>
<!-- Created with Inkscape (http://www.inkscape.org/) -->

<svg
   width="117.08494mm"
   height="101.45464mm"
   viewBox="0 0 442.52576 383.45063"
   version="1.1"
   id="svg1"
   inkscape:version="1.3.2 (091e20ef0f, 2023-11-25)"
   sodipodi:docname="black-back.svg"
   inkscape:export-filename="black-back.png"
   inkscape:export-xdpi="1200"
   inkscape:export-ydpi="1200"
   xmlns:inkscape="http://www.inkscape.org/namespaces/inkscape"
   xmlns:sodipodi="http://sodipodi.sourceforge.net/DTD/sodipodi-0.dtd"
   xmlns="http://www.w3.org/2000/svg"
   xmlns:svg="http://www.w3.org/2000/svg">
  <sodipodi:namedview
     id="namedview1"
     pagecolor="#ffffff"
     bordercolor="#000000"
     borderopacity="0.25"
     inkscape:showpageshadow="2"
     inkscape:pageopacity="0.0"
     inkscape:pagecheckerboard="0"
     inkscape:deskcolor="#d1d1d1"
     inkscape:document-units="mm"
     inkscape:zoom="0.99528652"
     inkscape:cx="218.53004"
     inkscape:cy="256.20763"
     inkscape:window-width="1920"
     inkscape:window-height="1011"
     inkscape:window-x="0"
     inkscape:window-y="0"
     inkscape:window-maximized="1"
     inkscape:current-layer="layer1" />
  <defs
     id="defs1" />
  <g
     inkscape:label="图层 1"
     inkscape:groupmode="layer"
     id="layer1">
    <rect
       style="fill:#ffffff;fill-opacity:1;stroke-width:1.13386;stroke-linecap:square"
       id="rect69"
       width="2.317543"
       height="25.540993"
       x="342.28275"
       y="73.940384"
       ry="0.85758746"
       transform="rotate(15.43579)" />
    <g
       id="g105"
       transform="matrix(0.59146649,0.34362132,-0.34362132,0.59146649,321.24366,-296.56932)">
      <path
         style="font-variation-settings:normal;opacity:1;vector-effect:none;fill:none;fill-opacity:1;stroke:#ffffff;stroke-width:11.3386;stroke-linecap:round;stroke-linejoin:round;stroke-miterlimit:4;stroke-dasharray:none;stroke-dashoffset:0;stroke-opacity:1;-inkscape-stroke:none;stop-color:#000000;stop-opacity:1"
         d="m -53.246652,597.69822 c 7.8282,-7.35987 23.92352,-17.1317 30.8273,-17.79815"
         id="path70"
         sodipodi:nodetypes="cc" />
      <path
         style="font-variation-settings:normal;opacity:1;vector-effect:none;fill:none;fill-opacity:1;stroke:#ffffff;stroke-width:11.3386;stroke-linecap:round;stroke-linejoin:round;stroke-miterlimit:4;stroke-dasharray:none;stroke-dashoffset:0;stroke-opacity:1;-inkscape-stroke:none;stop-color:#000000;stop-opacity:1"
         d="m -21.761172,579.37299 c 1.42091,-4.3668 1.90519,-49.9206 0.24977,-57.38663 7.98153,-0.16373 49.13799,-24.40664 50.28207,-28.94967 2.16259,5.51852 42.76332,28.16568 49.55566,28.29056 -3.34413,6.76737 -3.59113,50.71015 -0.27336,57.59962 -6.28864,-1.07331 -46.78737,23.1918 -50.02536,28.38215 -6.31223,-7.27037 -36.21727,-27.47881 -49.78878,-27.93603 z"
         id="path71"
         sodipodi:nodetypes="ccccccc" />
      <path
         style="font-variation-settings:normal;opacity:1;vector-effect:none;fill:none;fill-opacity:1;stroke:#ffffff;stroke-width:11.3386;stroke-linecap:round;stroke-linejoin:round;stroke-miterlimit:4;stroke-dasharray:none;stroke-dashoffset:0;stroke-opacity:1;-inkscape-stroke:none;stop-color:#000000;stop-opacity:1"
         d="m 29.107357,520.17541 c 3.609646,7.00234 10.946706,11.45852 20.39346,11.97129"
         id="path72"
         sodipodi:nodetypes="cc" />
      <path
         style="font-variation-settings:normal;opacity:1;vector-effect:none;fill:none;fill-opacity:1;stroke:#ffffff;stroke-width:11.3386;stroke-linecap:round;stroke-linejoin:round;stroke-miterlimit:4;stroke-dasharray:none;stroke-dashoffset:0;stroke-opacity:1;-inkscape-stroke:none;stop-color:#000000;stop-opacity:1"
         d="m 29.241788,583.22 c 5.645442,-7.82183 13.193366,-14.19145 27.81735,-15.64613"
         id="path73"
         sodipodi:nodetypes="cc" />
      <path
         style="font-variation-settings:normal;opacity:1;vector-effect:none;fill:none;fill-opacity:1;stroke:#ffffff;stroke-width:11.3386;stroke-linecap:round;stroke-linejoin:round;stroke-miterlimit:4;stroke-dasharray:none;stroke-dashoffset:0;stroke-opacity:1;-inkscape-stroke:none;stop-color:#000000;stop-opacity:1"
         d="m 2.4535381,535.5773 c 4.83441,7.49412 2.1601749,17.68648 -4.6503481,23.0739"
         id="path74"
         sodipodi:nodetypes="cc" />
      <path
         style="font-variation-settings:normal;opacity:1;vector-effect:none;fill:none;fill-opacity:1;stroke:#ffffff;stroke-width:11.3386;stroke-linecap:round;stroke-linejoin:round;stroke-miterlimit:4;stroke-dasharray:none;stroke-dashoffset:0;stroke-opacity:1;-inkscape-stroke:none;stop-color:#000000;stop-opacity:1"
         d="m 127.76057,491.3112 c 2.58092,-2.28449 3.99489,-47.59251 0.24977,-57.38663 6.48424,1.80899 46.84872,-21.39048 50.28207,-28.94967 1.87032,2.75939 42.34615,24.22746 49.55566,28.29056 -1.15257,6.48602 -1.9672,50.50167 -0.27336,57.59962 -4.64279,-1.98701 -41.65124,20.34045 -50.02536,28.38215 -5.90977,-10.14899 -36.97769,-27.04791 -49.78878,-27.93603 z"
         id="path76"
         sodipodi:nodetypes="ccccccc" />
      <path
         style="font-variation-settings:normal;opacity:1;vector-effect:none;fill:none;fill-opacity:1;stroke:#ffffff;stroke-width:11.3386;stroke-linecap:round;stroke-linejoin:round;stroke-miterlimit:4;stroke-dasharray:none;stroke-dashoffset:0;stroke-opacity:1;-inkscape-stroke:none;stop-color:#000000;stop-opacity:1"
         d="m 76.620368,522.28649 c 12.26091,-6.49742 38.274142,-19.62913 52.416492,-30.13716"
         id="path77"
         sodipodi:nodetypes="cc" />
      <path
         style="font-variation-settings:normal;opacity:1;vector-effect:none;fill:none;fill-opacity:1;stroke:#ffffff;stroke-width:11.3386;stroke-linecap:round;stroke-linejoin:round;stroke-miterlimit:4;stroke-dasharray:none;stroke-dashoffset:0;stroke-opacity:1;-inkscape-stroke:none;stop-color:#000000;stop-opacity:1"
         d="m 76.848978,577.90264 c 11.66092,0.58773 44.907972,20.74721 51.549622,30.13226 7.94222,-8.89593 41.34107,-22.51554 49.57056,-29.49841 -1.5955,-12.08987 -2.39734,-41.51454 0.0549,-60.17376"
         id="path78"
         sodipodi:nodetypes="cccc" />
      <path
         style="font-variation-settings:normal;opacity:1;vector-effect:none;fill:none;fill-opacity:1;stroke:#ffffff;stroke-width:11.3386;stroke-linecap:round;stroke-linejoin:round;stroke-miterlimit:4;stroke-dasharray:none;stroke-dashoffset:0;stroke-opacity:1;-inkscape-stroke:none;stop-color:#000000;stop-opacity:1"
         d="m 228.08177,433.07348 c 11.70065,-0.32183 49.74914,-11.2708 54.23666,-15.75833 4.2218,13.6395 28.03615,37.89117 34.57664,46.81141 -12.6536,5.41931 -28.21979,33.54544 -34.36551,46.6958 -7.34044,-8.34507 -38.20155,-11.62399 -55.79435,-19.68045"
         id="path79"
         sodipodi:nodetypes="ccccc" />
      <path
         style="font-variation-settings:normal;opacity:1;vector-effect:none;fill:#ffffff;fill-opacity:1;stroke:none;stroke-width:11.3386;stroke-linecap:round;stroke-linejoin:round;stroke-miterlimit:4;stroke-dasharray:none;stroke-dashoffset:0;stroke-opacity:1;-inkscape-stroke:none;stop-color:#000000;stop-opacity:1"
         d="m 186.03936,484.39675 c 4.07129,2.29432 -1.96116,20.1218 -4.71317,32.14415 l -4.01419,-0.0148 c -3.88512,-9.99552 -10.83239,-27.21065 -6.52522,-31.28523 2.56738,-2.42874 11.34231,-3.0477 15.25258,-0.84412 z"
         id="path80"
         sodipodi:nodetypes="sccss" />
      <path
         style="font-variation-settings:normal;opacity:1;vector-effect:none;fill:#ffffff;fill-opacity:1;stroke:none;stroke-width:11.3386;stroke-linecap:round;stroke-linejoin:round;stroke-miterlimit:4;stroke-dasharray:none;stroke-dashoffset:0;stroke-opacity:1;-inkscape-stroke:none;stop-color:#000000;stop-opacity:1"
         d="m 220.34381,378.45422 c 5.17671,-2.00648 11.69279,-1.94909 15.67095,0.12836 7.74451,4.04429 -2.09519,37.05659 -6.7403,57.26175 l -1.98706,-0.0153 c -3.89918,-15.94709 -15.64365,-54.00268 -6.94359,-57.37481 z"
         id="path81"
         sodipodi:nodetypes="ssccs" />
      <path
         style="font-variation-settings:normal;opacity:1;vector-effect:none;fill:#ffffff;fill-opacity:1;stroke:none;stroke-width:11.3386;stroke-linecap:round;stroke-linejoin:round;stroke-miterlimit:4;stroke-dasharray:none;stroke-dashoffset:0;stroke-opacity:1;-inkscape-stroke:none;stop-color:#000000;stop-opacity:1"
         d="m 288.87259,382.53897 c 3.83978,-0.31742 12.28292,2.72584 14.21264,6.60275 2.23432,4.48886 -13.69589,24.8106 -22.78264,35.6617 l -1.80255,-0.83633 c 0.95884,-14.62609 5.25033,-41.00468 10.37255,-41.42812 z"
         id="path82"
         sodipodi:nodetypes="ssccs" />
      <path
         style="font-variation-settings:normal;opacity:1;fill:none;fill-opacity:1;stroke:#ffffff;stroke-width:5.66929;stroke-linecap:round;stroke-linejoin:round;stroke-miterlimit:4;stroke-dasharray:none;stroke-dashoffset:0;stroke-opacity:1;stop-color:#000000;stop-opacity:1"
         d="m 126.09378,506.27744 c 2.58896,0.32997 4.06839,1.10934 8.94156,0.51412"
         id="path83"
         sodipodi:nodetypes="cc" />
      <path
         style="font-variation-settings:normal;opacity:1;fill:none;fill-opacity:1;stroke:#ffffff;stroke-width:5.66929;stroke-linecap:round;stroke-linejoin:round;stroke-miterlimit:4;stroke-dasharray:none;stroke-dashoffset:0;stroke-opacity:1;stop-color:#000000;stop-opacity:1"
         d="m 122.30103,515.69739 c 4.47618,1.29418 8.83362,1.86039 16.08754,0.48378"
         id="path84"
         sodipodi:nodetypes="cc" />
      <path
         style="font-variation-settings:normal;opacity:1;fill:none;fill-opacity:1;stroke:#ffffff;stroke-width:5.66929;stroke-linecap:round;stroke-linejoin:round;stroke-miterlimit:4;stroke-dasharray:none;stroke-dashoffset:0;stroke-opacity:1;stop-color:#000000;stop-opacity:1"
         d="m 119.2932,525.8252 c 4.39866,0.93164 22.6198,-0.63723 22.6198,-0.63723"
         id="path85"
         sodipodi:nodetypes="cc" />
      <path
         style="font-variation-settings:normal;opacity:1;fill:none;fill-opacity:1;stroke:#ffffff;stroke-width:5.66929;stroke-linecap:round;stroke-linejoin:round;stroke-miterlimit:4;stroke-dasharray:none;stroke-dashoffset:0;stroke-opacity:1;stop-color:#000000;stop-opacity:1"
         d="m 118.78441,535.26613 c 2.1699,4.03268 1.2417,21.84173 0.74179,27.85199"
         id="path86"
         sodipodi:nodetypes="cc" />
      <path
         style="font-variation-settings:normal;opacity:1;fill:none;fill-opacity:1;stroke:#ffffff;stroke-width:5.66929;stroke-linecap:round;stroke-linejoin:round;stroke-miterlimit:4;stroke-dasharray:none;stroke-dashoffset:0;stroke-opacity:1;stop-color:#000000;stop-opacity:1"
         d="m 138.47635,536.32238 c 1.42577,5.90124 1.96202,21.09354 1.67048,26.0054"
         id="path87"
         sodipodi:nodetypes="cc" />
      <path
         style="font-variation-settings:normal;opacity:1;fill:none;fill-opacity:1;stroke:#ffffff;stroke-width:5.66929;stroke-linecap:round;stroke-linejoin:round;stroke-miterlimit:4;stroke-dasharray:none;stroke-dashoffset:0;stroke-opacity:1;stop-color:#000000;stop-opacity:1"
         d="m 120.50595,549.04647 c 3.03874,-2.4564 17.15066,-1.15431 19.53004,0.33611"
         id="path88"
         sodipodi:nodetypes="cc" />
      <path
         style="font-variation-settings:normal;opacity:1;fill:none;fill-opacity:1;stroke:#ffffff;stroke-width:5.66929;stroke-linecap:round;stroke-linejoin:round;stroke-miterlimit:4;stroke-dasharray:none;stroke-dashoffset:0;stroke-opacity:1;stop-color:#000000;stop-opacity:1"
         d="m 222.35911,506.27744 c 2.7386,0.20263 4.90735,0.39542 8.94156,0.51412"
         id="path89"
         sodipodi:nodetypes="cc" />
      <path
         style="font-variation-settings:normal;opacity:1;fill:none;fill-opacity:1;stroke:#ffffff;stroke-width:5.66929;stroke-linecap:round;stroke-linejoin:round;stroke-miterlimit:4;stroke-dasharray:none;stroke-dashoffset:0;stroke-opacity:1;stop-color:#000000;stop-opacity:1"
         d="m 218.97993,515.70867 c 3.40829,-0.66748 8.54082,-0.49231 16.08754,0.48378"
         id="path90"
         sodipodi:nodetypes="cc" />
      <path
         style="font-variation-settings:normal;opacity:1;fill:none;fill-opacity:1;stroke:#ffffff;stroke-width:5.66929;stroke-linecap:round;stroke-linejoin:round;stroke-miterlimit:4;stroke-dasharray:none;stroke-dashoffset:0;stroke-opacity:1;stop-color:#000000;stop-opacity:1"
         d="m 215.55853,525.8252 c 5.91175,-0.45281 21.01937,-1.02316 22.6198,-0.63723"
         id="path91"
         sodipodi:nodetypes="cc" />
      <path
         style="font-variation-settings:normal;opacity:1;fill:none;fill-opacity:1;stroke:#ffffff;stroke-width:5.66929;stroke-linecap:round;stroke-linejoin:round;stroke-miterlimit:4;stroke-dasharray:none;stroke-dashoffset:0;stroke-opacity:1;stop-color:#000000;stop-opacity:1"
         d="m 217.16322,534.66025 c -0.0201,6.4773 -0.87178,22.44761 -1.37169,28.45787"
         id="path92"
         sodipodi:nodetypes="cc" />
      <path
         style="font-variation-settings:normal;opacity:1;fill:none;fill-opacity:1;stroke:#ffffff;stroke-width:5.66929;stroke-linecap:round;stroke-linejoin:round;stroke-miterlimit:4;stroke-dasharray:none;stroke-dashoffset:0;stroke-opacity:1;stop-color:#000000;stop-opacity:1"
         d="m 237.5204,535.14005 c -1.27128,7.75011 -0.81932,22.28066 -1.10824,27.18773"
         id="path93"
         sodipodi:nodetypes="cc" />
      <path
         style="font-variation-settings:normal;opacity:1;fill:none;fill-opacity:1;stroke:#ffffff;stroke-width:5.66929;stroke-linecap:round;stroke-linejoin:round;stroke-miterlimit:4;stroke-dasharray:none;stroke-dashoffset:0;stroke-opacity:1;stop-color:#000000;stop-opacity:1"
         d="m 216.77128,549.04647 c 3.44504,1.3529 17.20719,-1.96721 19.53004,0.33611"
         id="path94"
         sodipodi:nodetypes="cc" />
      <path
         style="font-variation-settings:normal;opacity:1;fill:none;fill-opacity:1;stroke:#ffffff;stroke-width:5.66929;stroke-linecap:round;stroke-linejoin:round;stroke-miterlimit:4;stroke-dasharray:none;stroke-dashoffset:0;stroke-opacity:1;stop-color:#000000;stop-opacity:1"
         d="m 169.3686,449.64429 c -1.05378,6.29725 -0.88257,22.77484 0.13541,28.43432"
         id="path95"
         sodipodi:nodetypes="cc" />
      <path
         style="font-variation-settings:normal;opacity:1;fill:none;fill-opacity:1;stroke:#ffffff;stroke-width:5.66929;stroke-linecap:round;stroke-linejoin:round;stroke-miterlimit:4;stroke-dasharray:none;stroke-dashoffset:0;stroke-opacity:1;stop-color:#000000;stop-opacity:1"
         d="m 188.41148,450.4263 c 0.57973,7.75011 0.49498,21.97845 0.20606,26.88552"
         id="path96"
         sodipodi:nodetypes="cc" />
      <path
         style="font-variation-settings:normal;opacity:1;fill:none;fill-opacity:1;stroke:#ffffff;stroke-width:5.66929;stroke-linecap:round;stroke-linejoin:round;stroke-miterlimit:4;stroke-dasharray:none;stroke-dashoffset:0;stroke-opacity:1;stop-color:#000000;stop-opacity:1"
         d="m 168.97666,464.03051 c 3.49755,1.91076 17.44249,0.53243 19.53004,0.33611"
         id="path97"
         sodipodi:nodetypes="cc" />
      <path
         style="font-variation-settings:normal;opacity:1;fill:none;fill-opacity:1;stroke:#ffffff;stroke-width:5.66929;stroke-linecap:round;stroke-linejoin:round;stroke-miterlimit:4;stroke-dasharray:none;stroke-dashoffset:0;stroke-opacity:1;stop-color:#000000;stop-opacity:1"
         d="m 313.87014,363.47417 c -0.35188,7.62451 -3.94129,11.9187 -10.94557,12.32588 -5.61017,0.32614 -12.5137,-5.89725 -11.56991,-15.05631 0.88904,-8.62776 6.861,-11.40197 11.45521,-11.915 6.28824,-0.70219 11.50896,4.92342 11.06027,14.64543 z"
         id="path98"
         sodipodi:nodetypes="sssss" />
      <path
         style="font-variation-settings:normal;opacity:1;fill:none;fill-opacity:1;stroke:#ffffff;stroke-width:5.66929;stroke-linecap:round;stroke-linejoin:round;stroke-miterlimit:4;stroke-dasharray:none;stroke-dashoffset:0;stroke-opacity:1;stop-color:#000000;stop-opacity:1"
         d="m 324.65308,347.85489 c 1.86028,5.50726 1.51066,22.12605 0.13541,28.43432"
         id="path99"
         sodipodi:nodetypes="cc" />
      <path
         style="font-variation-settings:normal;opacity:1;fill:none;fill-opacity:1;stroke:#ffffff;stroke-width:5.66929;stroke-linecap:round;stroke-linejoin:round;stroke-miterlimit:4;stroke-dasharray:none;stroke-dashoffset:0;stroke-opacity:1;stop-color:#000000;stop-opacity:1"
         d="m 343.69596,348.6369 c -0.75466,8.17404 0.10116,22.10356 0.20606,26.88552"
         id="path100"
         sodipodi:nodetypes="cc" />
      <path
         style="font-variation-settings:normal;opacity:1;fill:none;fill-opacity:1;stroke:#ffffff;stroke-width:5.66929;stroke-linecap:round;stroke-linejoin:round;stroke-miterlimit:4;stroke-dasharray:none;stroke-dashoffset:0;stroke-opacity:1;stop-color:#000000;stop-opacity:1"
         d="m 326.26129,362.0694 c 3.49755,1.91076 14.51512,0.78165 16.60267,0.58533"
         id="path101"
         sodipodi:nodetypes="cc" />
      <path
         style="font-variation-settings:normal;opacity:1;fill:none;fill-opacity:1;stroke:#ffffff;stroke-width:5.66929;stroke-linecap:round;stroke-linejoin:round;stroke-miterlimit:4;stroke-dasharray:none;stroke-dashoffset:0;stroke-opacity:1;stop-color:#000000;stop-opacity:1"
         d="m -60.317812,619.87853 c -0.336166,7.78769 -3.995713,12.03163 -10.945568,12.32588 -5.231169,0.22148 -12.233456,-4.44042 -11.56991,-15.05631 0.575606,-9.20896 7.91746,-12.14559 11.45521,-11.915 6.313924,0.41154 11.479987,4.92213 11.060268,14.64543 z"
         id="path102"
         sodipodi:nodetypes="sssss" />
      <path
         style="font-variation-settings:normal;opacity:1;fill:none;fill-opacity:1;stroke:#ffffff;stroke-width:5.66929;stroke-linecap:round;stroke-linejoin:round;stroke-miterlimit:4;stroke-dasharray:none;stroke-dashoffset:0;stroke-opacity:1;stop-color:#000000;stop-opacity:1"
         d="m -111.02015,604.5836 c -1.90465,6.4831 -1.03283,22.28563 0.13541,28.43432"
         id="path103"
         sodipodi:nodetypes="cc" />
      <path
         style="font-variation-settings:normal;opacity:1;fill:none;fill-opacity:1;stroke:#ffffff;stroke-width:5.66929;stroke-linecap:round;stroke-linejoin:round;stroke-miterlimit:4;stroke-dasharray:none;stroke-dashoffset:0;stroke-opacity:1;stop-color:#000000;stop-opacity:1"
         d="m -93.748203,605.04126 c 0.174209,8.95142 0.560973,22.48838 0.20606,26.88552"
         id="path104"
         sodipodi:nodetypes="cc" />
      <path
         style="font-variation-settings:normal;opacity:1;fill:none;fill-opacity:1;stroke:#ffffff;stroke-width:5.66929;stroke-linecap:round;stroke-linejoin:round;stroke-miterlimit:4;stroke-dasharray:none;stroke-dashoffset:0;stroke-opacity:1;stop-color:#000000;stop-opacity:1"
         d="m -111.18288,619.91583 c 5.9047,-1.33555 15.204768,-0.94349 17.292318,-1.13981"
         id="path105"
         sodipodi:nodetypes="cc" />
    </g>
    <text
       xml:space="preserve"
       style="font-size:26.6667px;fill:#ffffff;fill-opacity:1;stroke:none;stroke-width:7.57969;stroke-linecap:round;stroke-linejoin:round;stroke-dasharray:none;stroke-opacity:1"
       x="169.84404"
       y="184.41449"
       id="text106"><tspan
         sodipodi:role="line"
         id="tspan106"
         x="169.84404"
         y="184.41449"
         style="font-style:normal;font-variant:normal;font-weight:normal;font-stretch:normal;font-size:26.6667px;font-family:'思源黑体 CN';-inkscape-font-specification:'思源黑体 CN';fill:#ffffff;fill-opacity:1;stroke:none;stroke-width:7.57969;stroke-opacity:1">@<tspan
   style="font-style:normal;font-variant:normal;font-weight:bold;font-stretch:normal;font-size:26.6667px;font-family:'思源黑体 CN';-inkscape-font-specification:'思源黑体 CN Bold';fill:#ffffff;fill-opacity:1;stroke-width:7.57969"
   id="tspan105">sb-child</tspan></tspan></text>
    <text
       xml:space="preserve"
       style="font-weight:bold;font-size:26.6667px;font-family:'思源黑体 CN';-inkscape-font-specification:'思源黑体 CN Bold';fill:#ffffff;fill-opacity:1;stroke-width:1.13386;stroke-linecap:square"
       x="316.98596"
       y="183.78058"
       id="text107"><tspan
         sodipodi:role="line"
         id="tspan107"
         style="font-style:normal;font-variant:normal;font-weight:normal;font-stretch:normal;font-family:'霞鹜文楷';-inkscape-font-specification:'霞鹜文楷';fill:#ffffff;fill-opacity:1;stroke-width:1.13386"
         x="316.98596"
         y="183.78058">Triple</tspan></text>
    <g
       style="fill:#ffffff;fill-opacity:1"
       id="g107"
       transform="matrix(1.143129,0,0,1.143129,54.49439,162.74405)">
      <path
         fill-rule="evenodd"
         clip-rule="evenodd"
         d="M 20.9992,5.95846 C 21.0087,6.565 20.9333,7.32649 20.8658,7.8807 20.8395,8.09686 20.8037,8.27676 20.7653,8.42453 21.6227,10.01 22,11.9174 22,14 22,16.4684 20.8127,18.501 18.9638,19.8871 17.1319,21.2605 14.6606,22 12,22 9.33939,22 6.86809,21.2605 5.0362,19.8871 3.18727,18.501 2,16.4684 2,14 2,11.9174 2.37732,10.01 3.23472,8.42452 3.19631,8.27676 3.16055,8.09685 3.13422,7.8807 3.06673,7.32649 2.99133,6.565 3.00081,5.95846 3.01149,5.27506 3.10082,4.5917 3.19988,3.91379 3.24569,3.60028 3.31843,3.30547 3.65883,3.11917 4.00655,2.92886 4.37274,2.99981 4.73398,3.1021 5.95247,3.44713 7.09487,3.93108 8.16803,4.51287 9.2995,4.17287 10.5783,4 12,4 c 1.4217,0 2.7005,0.17287 3.832,0.51287 1.0731,-0.58179 2.2155,-1.06574 3.434,-1.41077 0.3613,-0.10229 0.7275,-0.17324 1.0752,0.01707 0.3404,0.1863 0.4131,0.48111 0.4589,0.79462 0.0991,0.67791 0.1884,1.36127 0.1991,2.04467 z M 20,14 c 0,-1.6872 -0.3878,-4 -2.5,-4 -0.9522,0 -1.8526,0.2502 -2.7526,0.5004 C 13.8482,10.7502 12.9495,11 12,11 11.0505,11 10.1518,10.7502 9.25263,10.5004 8.35261,10.2502 7.45216,10 6.5,10 4.39379,10 4,12.3197 4,14 4,15.7636 4.82745,17.231 6.23588,18.2869 7.66135,19.3556 9.69005,20 12,20 14.3099,20 16.3386,19.3555 17.7641,18.2869 19.1726,17.231 20,15.7636 20,14 Z M 10,14.5 C 10,15.8807 9.32843,17 8.5,17 7.67157,17 7,15.8807 7,14.5 7,13.1193 7.67157,12 8.5,12 9.32843,12 10,13.1193 10,14.5 Z M 15.5,17 C 16.3284,17 17,15.8807 17,14.5 17,13.1193 16.3284,12 15.5,12 14.6716,12 14,13.1193 14,14.5 c 0,1.3807 0.6716,2.5 1.5,2.5 z"
         fill="#000000"
         id="path107"
         style="fill:#ffffff;fill-opacity:1" />
    </g>
    <text
       xml:space="preserve"
       style="font-size:24.0655px;fill:#ffffff;fill-opacity:1;stroke:none;stroke-width:7.57969;stroke-linecap:round;stroke-linejoin:round;stroke-dasharray:none;stroke-opacity:1"
       x="85.58622"
       y="185.32962"
       id="text108"><tspan
         sodipodi:role="line"
         id="tspan108"
         x="85.58622"
         y="185.32962"
         style="font-style:normal;font-variant:normal;font-weight:normal;font-stretch:normal;font-family:'霞鹜文楷';-inkscape-font-specification:'霞鹜文楷';fill:#ffffff;fill-opacity:1;stroke:none;stroke-width:7.57969;stroke-opacity:1">GitHub</tspan></text>
  </g>
</svg>
