<?xml version="1.0" encoding="UTF-8" standalone="no"?>
<!-- Created with Inkscape (http://www.inkscape.org/) -->

<svg
   width="117.08494mm"
   height="101.45464mm"
   viewBox="0 0 442.52576 383.45063"
   version="1.1"
   id="svg1"
   inkscape:version="1.3.2 (091e20ef0f, 2023-11-25)"
   sodipodi:docname="white-front.svg"
   inkscape:export-filename="white-front.png"
   inkscape:export-xdpi="1200"
   inkscape:export-ydpi="1200"
   xmlns:inkscape="http://www.inkscape.org/namespaces/inkscape"
   xmlns:sodipodi="http://sodipodi.sourceforge.net/DTD/sodipodi-0.dtd"
   xmlns="http://www.w3.org/2000/svg"
   xmlns:svg="http://www.w3.org/2000/svg">
  <sodipodi:namedview
     id="namedview1"
     pagecolor="#ffffff"
     bordercolor="#000000"
     borderopacity="0.25"
     inkscape:showpageshadow="2"
     inkscape:pageopacity="0.0"
     inkscape:pagecheckerboard="0"
     inkscape:deskcolor="#d1d1d1"
     inkscape:document-units="mm"
     inkscape:zoom="1.4075477"
     inkscape:cx="354.16206"
     inkscape:cy="184.00797"
     inkscape:window-width="1920"
     inkscape:window-height="1011"
     inkscape:window-x="0"
     inkscape:window-y="0"
     inkscape:window-maximized="1"
     inkscape:current-layer="layer1" />
  <defs
     id="defs1" />
  <g
     inkscape:label="图层 1"
     inkscape:groupmode="layer"
     id="layer1">
    <path
       id="path16"
       style="fill:#7f9fac;fill-opacity:1;stroke-width:3.25977;stroke-linecap:round;stroke-linejoin:round"
       d="m 173.95913,136.02475 32.52778,18.77991 2.65508,9.70643 -37.77259,65.42396 -15.32902,10.65491 -22.99755,-13.27763 -12.92214,-31.62233 33.7916,-58.52863 z"
       sodipodi:nodetypes="ccccccccc" />
    <path
       id="rect172"
       style="fill:#83d2f1;fill-opacity:1;stroke-width:3.25977;stroke-linecap:round;stroke-linejoin:round"
       d="m 183.40171,132.84885 32.52779,18.77991 2.65511,9.70639 -37.7726,65.42401 -15.32908,10.65486 -22.99756,-13.27759 -12.92213,-31.62233 33.7916,-58.52863 z"
       sodipodi:nodetypes="ccccccccc" />
    <path
       id="path17"
       style="fill:#957379;fill-opacity:1;stroke-width:3.25977;stroke-linecap:round;stroke-linejoin:round"
       d="m 212.15866,225.22282 26.01789,15.02146 3.46927,13.02985 -41.57367,72.00779 -20.40246,-3.90595 -25.57378,-14.76507 -8.21352,-10.4801 41.01463,-71.03944 z"
       sodipodi:nodetypes="ccccccccc" />
    <path
       id="rect173"
       style="fill:#f5a9b8;stroke-width:3.25977;stroke-linecap:round;stroke-linejoin:round"
       d="m 215.30621,210.89931 26.01786,15.02147 3.46926,13.02988 -41.57363,72.00779 -20.4025,-3.90599 -25.57377,-14.76503 -8.21353,-10.48013 41.01467,-71.03944 z"
       sodipodi:nodetypes="ccccccccc" />
    <path
       id="path18"
       style="fill:#a9a9a9;fill-opacity:1;stroke-width:3.25977;stroke-linecap:round;stroke-linejoin:round"
       d="m 287.87568,217.86887 31.25609,18.04585 2.64514,10.48218 -40.70748,70.50739 -14.32982,3.67238 -37.20238,-21.47872 -1.72464,-12.96041 40.25659,-69.72681 z"
       sodipodi:nodetypes="ccccccccc" />
    <path
       id="rect174"
       style="fill:#ffffff;fill-opacity:1;stroke-width:3.25795;stroke-linecap:round;stroke-linejoin:round;stroke-dasharray:none"
       d="m 284.90572,205.36782 31.25609,18.04581 2.64518,10.48218 -40.70751,70.50739 -14.32982,3.67238 -37.20234,-21.47872 -1.72468,-12.96041 40.25658,-69.72681 z"
       sodipodi:nodetypes="ccccccccc" />
    <g
       id="g172"
       transform="matrix(0.62934666,0,0,0.62934666,-8.1506,17.5014)">
      <path
         style="fill:none;stroke:#319bdd;stroke-width:11.3386;stroke-linecap:round;stroke-linejoin:round;stroke-dasharray:none;stroke-opacity:1"
         d="m 86.518154,24.117164 c 6.490554,5.25524 7.843419,48.462514 -4.043166,66.774176"
         id="path1"
         sodipodi:nodetypes="cc" />
      <path
         style="font-variation-settings:normal;opacity:1;vector-effect:none;fill:none;fill-opacity:1;stroke:#319bdd;stroke-width:11.3386;stroke-linecap:round;stroke-linejoin:round;stroke-miterlimit:4;stroke-dasharray:none;stroke-dashoffset:0;stroke-opacity:1;-inkscape-stroke:none;stop-color:#000000;stop-opacity:1"
         d="m 86.518154,24.117164 c 10.804571,6.043453 30.996096,-5.502927 49.549346,-0.08976"
         id="path2"
         sodipodi:nodetypes="cc" />
      <path
         style="font-variation-settings:normal;opacity:1;vector-effect:none;fill:none;fill-opacity:1;stroke:#319bdd;stroke-width:11.3386;stroke-linecap:round;stroke-linejoin:round;stroke-miterlimit:4;stroke-dasharray:none;stroke-dashoffset:0;stroke-opacity:1;-inkscape-stroke:none;stop-color:#000000;stop-opacity:1"
         d="m 82.474988,90.89134 c 15.003764,-3.92777 47.739492,-8.764142 56.130672,-0.0665"
         id="path3"
         sodipodi:nodetypes="cc" />
      <path
         style="font-variation-settings:normal;opacity:1;vector-effect:none;fill:none;fill-opacity:1;stroke:#319bdd;stroke-width:11.3386;stroke-linecap:round;stroke-linejoin:round;stroke-miterlimit:4;stroke-dasharray:none;stroke-dashoffset:0;stroke-opacity:1;-inkscape-stroke:none;stop-color:#000000;stop-opacity:1"
         d="m 91.307532,54.982265 c 13.904868,-3.99511 28.942288,-2.314818 37.630078,0.600843"
         id="path4"
         sodipodi:nodetypes="cc" />
      <path
         style="font-variation-settings:normal;opacity:1;vector-effect:none;fill:none;fill-opacity:1;stroke:#319bdd;stroke-width:11.3386;stroke-linecap:round;stroke-linejoin:round;stroke-miterlimit:4;stroke-dasharray:none;stroke-dashoffset:0;stroke-opacity:1;-inkscape-stroke:none;stop-color:#000000;stop-opacity:1"
         d="m 197.4904,44.609021 c -12.4623,-11.249846 -30.91956,-7.557958 -32.50416,6.016127 -0.80086,6.860384 3.6187,14.941195 16.3963,13.737752 13.88722,-1.30795 19.864,10.016725 14.53064,18.602143 -5.09349,8.199317 -21.56403,13.183457 -34.09092,1.017754"
         id="path5"
         sodipodi:nodetypes="csssc" />
      <path
         style="font-variation-settings:normal;opacity:1;vector-effect:none;fill:none;fill-opacity:1;stroke:#e6519f;stroke-width:11.3386;stroke-linecap:round;stroke-linejoin:round;stroke-miterlimit:4;stroke-dasharray:none;stroke-dashoffset:0;stroke-opacity:1;-inkscape-stroke:none;stop-color:#000000;stop-opacity:1"
         d="m 238.84608,24.499513 c 6.55096,11.16972 -4.52917,55.359381 1.35098,67.273443"
         id="path6"
         sodipodi:nodetypes="cc" />
      <path
         style="font-variation-settings:normal;opacity:1;vector-effect:none;fill:none;fill-opacity:1;stroke:#e6519f;stroke-width:11.3386;stroke-linecap:round;stroke-linejoin:round;stroke-miterlimit:4;stroke-dasharray:none;stroke-dashoffset:0;stroke-opacity:1;-inkscape-stroke:none;stop-color:#000000;stop-opacity:1"
         d="m 220.86526,46.852584 c 9.25285,6.039954 26.55181,-6.261922 36.89461,0.436628"
         id="path7"
         sodipodi:nodetypes="cc" />
      <path
         style="font-variation-settings:normal;opacity:1;vector-effect:none;fill:none;fill-opacity:1;stroke:#e6519f;stroke-width:11.3386;stroke-linecap:round;stroke-linejoin:round;stroke-miterlimit:4;stroke-dasharray:none;stroke-dashoffset:0;stroke-opacity:1;-inkscape-stroke:none;stop-color:#000000;stop-opacity:1"
         d="m 281.52135,59.326445 c 1.86363,-17.305253 23.56341,-12.482064 21.38153,0.859587"
         id="path8"
         sodipodi:nodetypes="cc" />
      <path
         style="font-variation-settings:normal;opacity:1;vector-effect:none;fill:none;fill-opacity:1;stroke:#e6519f;stroke-width:11.3386;stroke-linecap:round;stroke-linejoin:round;stroke-miterlimit:4;stroke-dasharray:none;stroke-dashoffset:0;stroke-opacity:1;-inkscape-stroke:none;stop-color:#000000;stop-opacity:1"
         d="m 300.98005,91.926254 c 6.26465,-12.932637 0.89479,-21.436878 1.66233,-28.797142 1.31468,-12.607104 12.83471,-20.419022 24.15423,-11.960501"
         id="path9"
         sodipodi:nodetypes="csc" />
      <path
         style="font-variation-settings:normal;opacity:1;vector-effect:none;fill:none;fill-opacity:1;stroke:#e6519f;stroke-width:11.3386;stroke-linecap:round;stroke-linejoin:round;stroke-miterlimit:4;stroke-dasharray:none;stroke-dashoffset:0;stroke-opacity:1;-inkscape-stroke:none;stop-color:#000000;stop-opacity:1"
         d="M 384.29748,56.008882 C 380.37206,45.946134 352.88913,39.87842 346.274,64.503939 c -2.47339,9.207462 -2.58582,27.169211 17.70837,26.262651 18.20823,-0.81338 20.36038,-17.195935 20.36038,-17.195935 0.15888,4.182252 -0.0656,17.526185 14.77734,14.067225"
         id="path10"
         sodipodi:nodetypes="csscc" />
      <path
         style="font-variation-settings:normal;opacity:1;vector-effect:none;fill:none;fill-opacity:1;stroke:#e6519f;stroke-width:11.3386;stroke-linecap:round;stroke-linejoin:round;stroke-miterlimit:4;stroke-dasharray:none;stroke-dashoffset:0;stroke-opacity:1;-inkscape-stroke:none;stop-color:#000000;stop-opacity:1"
         d="m 441.44632,57.222425 c -14.30129,0.796724 -17.597,10.569718 -17.86595,17.911574 -0.68036,18.572494 28.96535,23.483134 36.18739,6.332178 4.73031,-11.233583 -6.31196,-35.153237 2.52143,-60.324954"
         id="path11"
         sodipodi:nodetypes="cssc" />
      <path
         style="font-variation-settings:normal;opacity:1;vector-effect:none;fill:none;fill-opacity:1;stroke:#e6519f;stroke-width:11.3386;stroke-linecap:round;stroke-linejoin:round;stroke-miterlimit:4;stroke-dasharray:none;stroke-dashoffset:0;stroke-opacity:1;-inkscape-stroke:none;stop-color:#000000;stop-opacity:1"
         d="m 460.91315,71.265959 c 1.66797,14.203774 6.95684,24.025524 18.70583,18.288831"
         id="path12"
         sodipodi:nodetypes="cc" />
      <path
         style="font-variation-settings:normal;opacity:1;vector-effect:none;fill:none;fill-opacity:1;stroke:#319bdd;stroke-width:11.3386;stroke-linecap:round;stroke-linejoin:round;stroke-miterlimit:4;stroke-dasharray:none;stroke-dashoffset:0;stroke-opacity:1;-inkscape-stroke:none;stop-color:#000000;stop-opacity:1"
         d="m 496.35733,48.199211 c 9.80619,-2.520345 15.73085,6.481436 10.46096,20.829882 -4.14339,11.28129 -1.98289,28.87927 13.0909,20.706942"
         id="path14"
         sodipodi:nodetypes="csc" />
      <circle
         style="fill:#319bdd;fill-opacity:1;stroke:none;stroke-width:11.3386;stroke-linecap:round;stroke-linejoin:round;stroke-dasharray:none;stroke-opacity:1"
         id="path15"
         cx="504.37695"
         cy="28.892262"
         r="6.4817362" />
      <path
         id="path8-7"
         style="fill:#ffffff;fill-opacity:1;stroke:#616161;stroke-width:7.55803;stroke-linecap:round;stroke-linejoin:round;stroke-dasharray:none;stroke-opacity:1;paint-order:normal"
         inkscape:transform-center-x="-0.096912605"
         inkscape:transform-center-y="0.30806824"
         d="m 593.42334,80.172473 c -2.04363,2.15845 -4.4892,7.766157 -7.09981,9.187447 -2.6106,1.42128 -8.64783,0.43185 -11.56987,0.97684 -2.92203,0.54501 -8.19667,3.64426 -11.1441,3.25963 -2.94744,-0.38463 -7.25008,-4.7337 -9.9344,-6.01031 -2.68432,-1.27663 -8.77329,-1.869627 -10.93173,-3.913257 -2.15844,-2.04363 -3.08304,-8.09114 -4.50433,-10.70174 -1.42128,-2.61061 -5.9988,-6.66936 -6.5438,-9.59139 -0.545,-2.92204 2.26161,-8.35803 2.64624,-11.30547 0.38464,-2.94743 -0.93298,-8.92163 0.34363,-11.60595 1.27662,-2.68432 6.74242,-5.43245 8.78605,-7.59089 2.04363,-2.15844 4.48921,-7.76615 7.09981,-9.18743 2.61061,-1.42129 8.64784,-0.43185 11.56987,-0.97685 2.92204,-0.545 8.19667,-3.64426 11.14411,-3.25963 2.94743,0.38464 7.25008,4.7337 9.9344,6.01032 2.68432,1.27661 8.77329,1.86961 10.93173,3.91324 2.15844,2.04364 3.08304,8.09114 4.50432,10.70175 1.42129,2.6106 5.99881,6.66935 6.54381,9.59139 0.545,2.92203 -2.26161,8.35803 -2.64625,11.30546 -0.38463,2.94744 0.93298,8.92164 -0.34363,11.60596 -1.27661,2.68432 -6.74241,5.43244 -8.78605,7.59088 z" />
      <path
         style="font-variation-settings:normal;fill:none;fill-opacity:1;stroke:#e6519f;stroke-width:7.55906;stroke-linecap:round;stroke-linejoin:round;stroke-miterlimit:4;stroke-dasharray:none;stroke-dashoffset:0;stroke-opacity:1;stop-color:#000000"
         d="m 568.95283,34.584573 c 13.04415,2.23359 17.36734,12.16815 18.89221,16.34986 4.44952,12.202 -6.04957,29.91646 -22.46595,27.40788 -9.21365,-1.40794 -16.13839,-9.01006 -15.76409,-17.01863 0.47025,-10.06133 11.36848,-17.76882 21.30186,-11.45239 7.6636,4.87313 4.30234,19.18423 -5.69695,14.53343"
         id="path9-0"
         sodipodi:nodetypes="cssssc" />
      <path
         style="font-variation-settings:normal;opacity:1;vector-effect:none;fill:none;fill-opacity:1;stroke:#319bdd;stroke-width:11.3386;stroke-linecap:round;stroke-linejoin:round;stroke-miterlimit:4;stroke-dasharray:none;stroke-dashoffset:0;stroke-opacity:1;-inkscape-stroke:none;stop-color:#000000;stop-opacity:1"
         d="m 626.4363,25.36519 c 9.90471,12.250747 6.79562,26.520722 1.98962,44.685646 -3.60915,13.641264 4.06047,27.092894 17.10775,19.803054"
         id="path75"
         sodipodi:nodetypes="csc" />
    </g>
  </g>
</svg>
